<svg width="18" height="22" viewBox="0 0 18 22" fill="none" xmlns="http://www.w3.org/2000/svg">
<path d="M9 21C7.51664 21 6.06659 20.586 4.83323 19.8104C3.59986 19.0347 2.63856 17.9323 2.07091 16.6425C1.50325 15.3526 1.35472 13.9333 1.64411 12.5641C1.9335 11.1948 2.64781 9.93703 3.6967 8.94983C4.7456 7.96264 6.08197 7.29035 7.53682 7.01799C8.99168 6.74562 10.4997 6.88541 11.8701 7.41967C13.2406 7.95394 14.4119 8.85869 15.236 10.0195C16.0601 11.1803 16.5 12.5451 16.5 13.9412C16.5 15.8133 15.7098 17.6087 14.3033 18.9325C12.8968 20.2563 10.9891 21 9 21ZM8.225 13.2353L6.5 13.4588L7.75 14.5059L7.45 16L9 15.2941L10.55 16L10.25 14.5059L11.5 13.4588L9.775 13.2353L9 11.8824L8.225 13.2353ZM9 6.88235C10.3172 6.88455 11.6106 7.21322 12.75 7.83529V1H5.25V7.83529C6.3894 7.21322 7.68278 6.88455 9 6.88235Z" stroke="#393939" stroke-width="1.5" stroke-linecap="round" stroke-linejoin="round"/>
</svg>
