<svg width="30" height="20" viewBox="0 0 30 20" fill="none" xmlns="http://www.w3.org/2000/svg">
<path d="M18.1112 1.5H5.66669C4.21709 1.5 3.49189 1.5 2.92015 1.71567C2.15784 2.00324 1.55258 2.55514 1.23682 3.24939C1 3.77007 1 4.43016 1 5.75033C3.57734 5.75033 5.66669 7.65246 5.66669 9.99967C5.66669 12.3469 3.57734 14.25 1 14.25C1 15.5702 1 16.2303 1.23682 16.7509C1.55258 17.4452 2.15784 17.9966 2.92015 18.2842C3.49188 18.4999 4.21709 18.5 5.66669 18.5H18.1112M18.1112 1.5H24.3335C25.7831 1.5 26.5079 1.5 27.0796 1.71567C27.8419 2.00324 28.4474 2.55514 28.7632 3.24939C29 3.77007 29 4.43016 29 5.75033C26.4227 5.75033 24.3335 7.65279 24.3335 10C24.3335 12.3472 26.4227 14.25 29 14.25C29 15.5702 29 16.2303 28.7632 16.7509C28.4474 17.4452 27.8419 17.9966 27.0796 18.2842C26.5079 18.4999 25.7831 18.5 24.3335 18.5H18.1112M18.1112 1.5V18.5" stroke="white" stroke-width="2" stroke-linecap="round" stroke-linejoin="round"/>
</svg>
