<svg width="16" height="21" viewBox="0 0 16 21" fill="none" xmlns="http://www.w3.org/2000/svg">
<path d="M8 20C6.61553 20 5.26215 19.6067 4.11101 18.8699C2.95987 18.133 2.06266 17.0857 1.53285 15.8603C1.00303 14.635 0.86441 13.2867 1.13451 11.9859C1.4046 10.6851 2.07129 9.49018 3.05026 8.55234C4.02922 7.61451 5.2765 6.97584 6.63437 6.71709C7.99224 6.45834 9.3997 6.59114 10.6788 7.09869C11.9579 7.60624 13.0511 8.46575 13.8203 9.56853C14.5895 10.6713 15 11.9678 15 13.2941C15 15.0726 14.2625 16.7783 12.9497 18.0359C11.637 19.2935 9.85652 20 8 20ZM7.27667 12.6235L5.66667 12.8359L6.83334 13.8306L6.55334 15.25L8 14.5794L9.44667 15.25L9.16667 13.8306L10.3333 12.8359L8.72333 12.6235L8 11.3382L7.27667 12.6235ZM8 6.58824C9.22941 6.59033 10.4366 6.90256 11.5 7.49353V1H4.5V7.49353C5.56344 6.90256 6.77059 6.59033 8 6.58824Z" stroke="black" stroke-width="2" stroke-linecap="round" stroke-linejoin="round"/>
</svg>
